<?xml version="1.0" encoding="UTF-8"?>
<svg version="1.1" xmlns="http://www.w3.org/2000/svg" width="480" height="480">
<path d="M0 0 C0.96494385 0.00021149 1.9298877 0.00042297 2.92407227 0.00064087 C18.83060339 0.0353275 34.08622663 1.04865983 49.6875 4.375 C51.01297852 4.64787842 51.01297852 4.64787842 52.36523438 4.92626953 C93.59002828 13.63014583 131.89497531 33.69079232 162.6875 62.375 C164.07894666 63.58838219 165.47458639 64.79697803 166.875 66 C173.36860756 71.68840022 178.96278833 77.76478377 184.37109375 84.5 C185.86245378 86.3509966 187.37411746 88.18590849 188.91015625 90 C199.61874514 102.6916609 207.98069543 116.71057305 215.6875 131.375 C216.03522461 132.0256543 216.38294922 132.67630859 216.74121094 133.34667969 C227.91007442 154.49669337 234.99344915 178.82686133 238.6875 202.375 C238.87006348 203.53056396 239.05262695 204.68612793 239.24072266 205.87670898 C240.84108198 217.14691528 241.08557483 228.3156371 241.0625 239.6875 C241.06228851 240.65244385 241.06207703 241.6173877 241.06185913 242.61157227 C241.0271725 258.51810339 240.01384017 273.77372663 236.6875 289.375 C236.50558105 290.25865234 236.32366211 291.14230469 236.13623047 292.05273438 C227.43235417 333.27752828 207.37170768 371.58247531 178.6875 402.375 C177.47411781 403.76644666 176.26552197 405.16208639 175.0625 406.5625 C169.37409978 413.05610756 163.29771623 418.65028833 156.5625 424.05859375 C154.7115034 425.54995378 152.87659151 427.06161746 151.0625 428.59765625 C138.3708391 439.30624514 124.35192695 447.66819543 109.6875 455.375 C109.0368457 455.72272461 108.38619141 456.07044922 107.71582031 456.42871094 C86.56580663 467.59757442 62.23563867 474.68094915 38.6875 478.375 C37.53193604 478.55756348 36.37637207 478.74012695 35.18579102 478.92822266 C23.91558472 480.52858198 12.7468629 480.77307483 1.375 480.75 C0.41005615 480.74978851 -0.5548877 480.74957703 -1.54907227 480.74935913 C-17.45560339 480.7146725 -32.71122663 479.70134017 -48.3125 476.375 C-49.19615234 476.19308105 -50.07980469 476.01116211 -50.99023438 475.82373047 C-92.21502828 467.11985417 -130.51997531 447.05920768 -161.3125 418.375 C-162.70394666 417.16161781 -164.09958639 415.95302197 -165.5 414.75 C-171.99360756 409.06159978 -177.58778833 402.98521623 -182.99609375 396.25 C-184.48745378 394.3990034 -185.99911746 392.56409151 -187.53515625 390.75 C-198.24374514 378.0583391 -206.60569543 364.03942695 -214.3125 349.375 C-214.66022461 348.7243457 -215.00794922 348.07369141 -215.36621094 347.40332031 C-226.53507442 326.25330663 -233.61844915 301.92313867 -237.3125 278.375 C-237.49506348 277.21943604 -237.67762695 276.06387207 -237.86572266 274.87329102 C-239.46608198 263.60308472 -239.71057483 252.4343629 -239.6875 241.0625 C-239.68728851 240.09755615 -239.68707703 239.1326123 -239.68685913 238.13842773 C-239.6521725 222.23189661 -238.63884017 206.97627337 -235.3125 191.375 C-235.13058105 190.49134766 -234.94866211 189.60769531 -234.76123047 188.69726562 C-226.05735417 147.47247172 -205.99670768 109.16752469 -177.3125 78.375 C-176.09911781 76.98355334 -174.89052197 75.58791361 -173.6875 74.1875 C-167.99909978 67.69389244 -161.92271623 62.09971167 -155.1875 56.69140625 C-153.3365034 55.20004622 -151.50159151 53.68838254 -149.6875 52.15234375 C-136.9958391 41.44375486 -122.97692695 33.08180457 -108.3125 25.375 C-107.6618457 25.02727539 -107.01119141 24.67955078 -106.34082031 24.32128906 C-85.19080663 13.15242558 -60.86063867 6.06905085 -37.3125 2.375 C-36.15693604 2.19243652 -35.00137207 2.00987305 -33.81079102 1.82177734 C-22.54058472 0.22141802 -11.3718629 -0.02307483 0 0 Z " fill="#FDFEFD" transform="translate(239.3125,-0.375)"/>
<path d="M0 0 C1.39767403 1.18203289 2.77216203 2.39190475 4.125 3.625 C5.35283203 4.71554688 5.35283203 4.71554688 6.60546875 5.828125 C20.52538758 18.8846298 28.57960993 36.56550908 29.53125 55.59375 C30.81840873 110.4091024 -0.35260625 157.76299351 -28.59472656 202.33935547 C-40.99932733 221.92230859 -52.67898966 241.87637306 -60.875 263.625 C-61.12185547 264.27726562 -61.36871094 264.92953125 -61.62304688 265.6015625 C-68.53095315 284.20124366 -76.25777719 311.23290523 -68.875 330.625 C-64.60624639 338.65404073 -59.47688247 343.4124918 -51.0859375 346.7265625 C-42.95481229 349.00169486 -33.37644351 348.96483763 -25.859375 344.8671875 C-25.20453125 344.45726562 -24.5496875 344.04734375 -23.875 343.625 C-23.17890625 343.23570312 -22.4828125 342.84640625 -21.765625 342.4453125 C-14.60395988 337.89523203 -11.48843788 330.46531365 -8.875 322.625 C-7.07456531 307.34702565 -13.65188271 293.27270306 -20.30078125 279.94140625 C-21.875 276.625 -21.875 276.625 -21.875 274.625 C-14.45409202 274.50375801 -7.1960047 274.83976419 0.1875 275.5625 C10.15963094 276.48812794 20.12205083 277.1504531 30.125 277.625 C39.21774112 296.41051083 40.72015791 322.68847949 34.4140625 342.46875 C32.38667183 347.43278533 29.96123609 352.07756814 27.125 356.625 C26.465 356.625 25.805 356.625 25.125 356.625 C25.05796875 357.3365625 24.9909375 358.048125 24.921875 358.78125 C23.87728004 362.50902024 22.03037244 364.3282172 19.375 367.125 C18.51390625 368.0428125 17.6528125 368.960625 16.765625 369.90625 C15.89421875 370.8034375 15.0228125 371.700625 14.125 372.625 C13.28453125 373.49898438 12.4440625 374.37296875 11.578125 375.2734375 C9.35123847 377.40812809 7.21035755 379.08408299 4.625 380.75 C3.8928125 381.22695313 3.160625 381.70390625 2.40625 382.1953125 C1.6534375 382.66710937 0.900625 383.13890625 0.125 383.625 C-0.64070313 384.12644531 -1.40640625 384.62789063 -2.1953125 385.14453125 C-5.42397474 386.92829654 -8.75070854 388.07376969 -12.25 389.1875 C-13.20132813 389.49977539 -13.20132813 389.49977539 -14.171875 389.81835938 C-16.06809174 390.43559727 -17.9715572 391.03041941 -19.875 391.625 C-21.4528125 392.18574219 -21.4528125 392.18574219 -23.0625 392.7578125 C-43.62043093 397.43389925 -64.91138885 392.98549239 -82.875 382.625 C-93.93258133 375.14566275 -102.55807867 365.32874382 -108.875 353.625 C-109.25398437 352.97015625 -109.63296875 352.3153125 -110.0234375 351.640625 C-123.87102815 326.44425705 -117.82928815 289.94179859 -110.25 263.6875 C-99.58824134 229.26182789 -80.90328266 198.12401501 -61.96484375 167.74072266 C-27.05906482 114.33017524 -27.05906482 114.33017524 -19.33984375 52.75 C-21.20242593 46.4017909 -24.72609083 40.60165171 -30.3828125 37.05078125 C-37.97074745 33.190447 -44.32427782 31.58491216 -52.875 32.625 C-60.38811333 35.15649426 -66.63042074 38.83648416 -70.875 45.625 C-71.28492188 46.25792969 -71.69484375 46.89085937 -72.1171875 47.54296875 C-76.84883609 56.23941253 -75.9661173 66.81504576 -73.3125 76.0625 C-71.27119495 81.98744318 -68.76382081 87.72371091 -66.16186523 93.42163086 C-63.875 98.43579002 -63.875 98.43579002 -63.875 100.625 C-80.90619368 100.01139812 -97.88258626 98.91734897 -114.875 97.625 C-115.67374865 95.48179273 -116.46361858 93.33527584 -117.25 91.1875 C-117.91128906 89.39505859 -117.91128906 89.39505859 -118.5859375 87.56640625 C-121.56746369 78.76375233 -122.21333984 70.59933695 -122.1875 61.3125 C-122.20361328 60.16587891 -122.21972656 59.01925781 -122.23632812 57.83789062 C-122.24248917 46.95131775 -120.23855505 37.17202026 -115.1875 27.5 C-114.84009766 26.82259766 -114.49269531 26.14519531 -114.13476562 25.44726562 C-111.03509057 19.58860051 -107.35323949 14.51920245 -102.875 9.625 C-102.28460938 8.94308594 -101.69421875 8.26117188 -101.0859375 7.55859375 C-74.79533993 -21.02543893 -30.3310522 -22.50883347 0 0 Z " fill="#3288A8" transform="translate(280.875,51.375)"/>
<path d="M0 0 C5.15587761 0.23971863 10.31122747 0.48835154 15.46630859 0.74462891 C17.21359096 0.83030832 18.96098677 0.91371041 20.70849609 0.99462891 C47.92573378 2.25945751 71.08469352 5.90845187 91 26 C91.66773438 26.63421875 92.33546875 27.2684375 93.0234375 27.921875 C106.53561289 41.73975572 110.59511753 61.78483093 110.4050293 80.3605957 C110.20580232 87.59649638 109.50613417 94.1660036 107 101 C106.64808594 102.07121094 106.29617188 103.14242187 105.93359375 104.24609375 C99.64530293 122.19781507 86.55113478 136.26954778 69.52734375 144.52050781 C45.01519717 155.89199004 13.08158671 152.03798905 -13.26953125 148.46484375 C-18.00953726 147.87420426 -22.72946029 147.68479853 -27.5 147.5 C-32.90811312 147.29050351 -38.21698301 147.00470157 -43.58398438 146.27197266 C-49.69676482 145.58385246 -55.86126084 145.31568645 -62 144.9375 C-63.45704541 144.84592818 -64.91407682 144.75413322 -66.37109375 144.66210938 C-69.91390459 144.43883141 -73.45689587 144.21858051 -77 144 C-75.20693423 138.22593087 -73.13863046 132.81365195 -70.375 127.4375 C-70.03380127 126.76493164 -69.69260254 126.09236328 -69.34106445 125.39941406 C-66.72480811 120.29354215 -63.98753371 115.25715306 -61.1875 110.25 C-60.8147998 109.58282959 -60.44209961 108.91565918 -60.05810547 108.22827148 C-59.06209823 106.47205845 -58.03246522 104.73503032 -57 103 C-56.61400635 102.2673291 -56.2280127 101.5346582 -55.83032227 100.77978516 C-54 99 -54 99 -50.72558594 98.79736328 C-49.39328784 98.90939715 -48.06272779 99.04349458 -46.734375 99.1953125 C-45.2793509 99.32515118 -43.82427138 99.45437002 -42.36914062 99.58300781 C-41.6351001 99.65491333 -40.90105957 99.72681885 -40.14477539 99.80090332 C-37.00176981 100.0926644 -33.85479052 100.25977012 -30.703125 100.4296875 C-14.4924161 101.3917153 1.68252016 102.57402715 17.85644531 104.03466797 C37.64688458 106.27187159 37.64688458 106.27187159 55.20703125 98.16796875 C62.16761438 90.73846212 63.65776825 83.53176298 63.41015625 73.4765625 C62.60585932 66.65918856 59.76978679 61.34734429 54.8125 56.625 C46.44414105 50.44990692 37.63259035 49.31543962 27.4765625 48.8046875 C26.21282806 48.72630646 24.94909363 48.64792542 23.64706421 48.56716919 C20.31846479 48.36232716 16.98972677 48.1709211 13.65991211 47.9876709 C8.95193497 47.72699526 4.24506668 47.44907855 -0.46133423 47.16140747 C-2.9604352 47.00949878 -5.46010743 46.86665631 -7.96029663 46.7338562 C-9.0889212 46.66683502 -10.21754578 46.59981384 -11.38037109 46.53076172 C-12.37169037 46.47620819 -13.36300964 46.42165466 -14.3843689 46.365448 C-16.99964518 46.00004957 -18.73693674 45.32704217 -21 44 C-20.61255615 43.27111572 -20.2251123 42.54223145 -19.82592773 41.79125977 C-18.34540262 38.99681539 -16.87210165 36.19869791 -15.40307617 33.39819336 C-14.47122972 31.62662485 -13.53165503 29.85912803 -12.59179688 28.09179688 C-7.80398237 18.94681785 -3.79919621 9.59477836 0 0 Z " fill="#379FAE" transform="translate(311,169)"/>
<path d="M0 0 C5.60058323 0.47170049 11.20277865 0.92340661 16.80496216 1.37564087 C17.94167862 1.4678038 19.07839508 1.55996674 20.2495575 1.65492249 C33.85497107 2.74782299 47.47366083 3.64129049 61.09500122 4.50967407 C62.8238424 4.62254798 64.55268354 4.73542231 66.28152466 4.84829712 C67.06142258 4.89606293 67.8413205 4.94382874 68.64485168 4.99304199 C72.02594182 5.21543938 75.25638941 5.45261275 78.50418091 6.46157837 C77.05658756 11.26461888 75.04457466 15.61141937 72.69168091 20.02407837 C72.1213916 21.10000244 72.1213916 21.10000244 71.5395813 22.19766235 C66.31237488 31.88442907 60.39297666 41.16787352 54.50418091 50.46157837 C42.97781075 49.97966707 31.45977851 49.42716306 19.94558716 48.70767212 C18.89035858 48.64198029 17.83513 48.57628845 16.7479248 48.50860596 C12.4282693 48.2383894 8.10876316 47.96607658 3.7895813 47.68838501 C-22.01165177 44.405001 -22.01165177 44.405001 -45.30831909 52.71157837 C-52.15968515 61.32472427 -54.75628513 68.30094702 -53.49581909 79.46157837 C-50.93828371 87.46449352 -46.9762954 93.47812613 -39.49581909 97.46157837 C-33.86179759 100.2776826 -29.08239614 101.03650069 -22.82785034 101.37564087 C-21.91178513 101.43561249 -20.99571991 101.49558411 -20.05189514 101.55737305 C-17.13797602 101.74563165 -14.22335422 101.91656886 -11.30831909 102.08657837 C-9.37009353 102.20778836 -7.43194109 102.33017373 -5.49386597 102.45376587 C-2.68566733 102.63245551 0.1225535 102.8100984 2.93115234 102.98239136 C9.46477605 103.38396543 15.98519989 103.86372674 22.50418091 104.46157837 C21.12315633 107.99783222 19.61645603 111.44497526 18.00808716 114.88345337 C17.53177856 115.90954712 17.05546997 116.93564087 16.56472778 117.99282837 C15.57270184 120.12432609 14.57794591 122.25455554 13.58035278 124.38345337 C9.78350548 132.58177413 6.90859363 140.76870162 4.50418091 149.46157837 C-25.34269448 149.82867352 -55.44032986 148.54578042 -78.49581909 127.46157837 C-79.12745972 126.90985962 -79.75910034 126.35814087 -80.40988159 125.78970337 C-93.80859062 113.39442189 -101.25953465 93.82321979 -101.97116089 75.78555298 C-102.21544394 53.38165319 -93.83546723 34.37794061 -78.41769409 18.29360962 C-69.5889945 9.84094723 -58.18709647 3.85294127 -46.49581909 0.46157837 C-45.72367065 0.23728149 -44.95152222 0.01298462 -44.15597534 -0.21810913 C-30.01216045 -3.6540442 -14.31214125 -1.20554056 0 0 Z " fill="#2D70A2" transform="translate(157.49581909179688,158.53842163085938)"/>
<path d="M0 0 C0.96494385 0.00021149 1.9298877 0.00042297 2.92407227 0.00064087 C18.83060339 0.0353275 34.08622663 1.04865983 49.6875 4.375 C51.01297852 4.64787842 51.01297852 4.64787842 52.36523438 4.92626953 C93.59002828 13.63014583 131.89497531 33.69079232 162.6875 62.375 C164.07894666 63.58838219 165.47458639 64.79697803 166.875 66 C173.36860756 71.68840022 178.96278833 77.76478377 184.37109375 84.5 C185.86245378 86.3509966 187.37411746 88.18590849 188.91015625 90 C199.61874514 102.6916609 207.98069543 116.71057305 215.6875 131.375 C216.03522461 132.0256543 216.38294922 132.67630859 216.74121094 133.34667969 C227.91007442 154.49669337 234.99344915 178.82686133 238.6875 202.375 C238.87006348 203.53056396 239.05262695 204.68612793 239.24072266 205.87670898 C240.84108198 217.14691528 241.08557483 228.3156371 241.0625 239.6875 C241.06228851 240.65244385 241.06207703 241.6173877 241.06185913 242.61157227 C241.0271725 258.51810339 240.01384017 273.77372663 236.6875 289.375 C236.50558105 290.25865234 236.32366211 291.14230469 236.13623047 292.05273438 C227.43235417 333.27752828 207.37170768 371.58247531 178.6875 402.375 C177.47411781 403.76644666 176.26552197 405.16208639 175.0625 406.5625 C169.37409978 413.05610756 163.29771623 418.65028833 156.5625 424.05859375 C154.7115034 425.54995378 152.87659151 427.06161746 151.0625 428.59765625 C138.3708391 439.30624514 124.35192695 447.66819543 109.6875 455.375 C109.0368457 455.72272461 108.38619141 456.07044922 107.71582031 456.42871094 C86.56580663 467.59757442 62.23563867 474.68094915 38.6875 478.375 C37.53193604 478.55756348 36.37637207 478.74012695 35.18579102 478.92822266 C23.91558472 480.52858198 12.7468629 480.77307483 1.375 480.75 C0.41005615 480.74978851 -0.5548877 480.74957703 -1.54907227 480.74935913 C-17.45560339 480.7146725 -32.71122663 479.70134017 -48.3125 476.375 C-49.19615234 476.19308105 -50.07980469 476.01116211 -50.99023438 475.82373047 C-92.21502828 467.11985417 -130.51997531 447.05920768 -161.3125 418.375 C-162.70394666 417.16161781 -164.09958639 415.95302197 -165.5 414.75 C-171.99360756 409.06159978 -177.58778833 402.98521623 -182.99609375 396.25 C-184.48745378 394.3990034 -185.99911746 392.56409151 -187.53515625 390.75 C-198.24374514 378.0583391 -206.60569543 364.03942695 -214.3125 349.375 C-214.66022461 348.7243457 -215.00794922 348.07369141 -215.36621094 347.40332031 C-226.53507442 326.25330663 -233.61844915 301.92313867 -237.3125 278.375 C-237.49506348 277.21943604 -237.67762695 276.06387207 -237.86572266 274.87329102 C-239.46608198 263.60308472 -239.71057483 252.4343629 -239.6875 241.0625 C-239.68728851 240.09755615 -239.68707703 239.1326123 -239.68685913 238.13842773 C-239.6521725 222.23189661 -238.63884017 206.97627337 -235.3125 191.375 C-235.13058105 190.49134766 -234.94866211 189.60769531 -234.76123047 188.69726562 C-226.05735417 147.47247172 -205.99670768 109.16752469 -177.3125 78.375 C-176.09911781 76.98355334 -174.89052197 75.58791361 -173.6875 74.1875 C-167.99909978 67.69389244 -161.92271623 62.09971167 -155.1875 56.69140625 C-153.3365034 55.20004622 -151.50159151 53.68838254 -149.6875 52.15234375 C-136.9958391 41.44375486 -122.97692695 33.08180457 -108.3125 25.375 C-107.6618457 25.02727539 -107.01119141 24.67955078 -106.34082031 24.32128906 C-85.19080663 13.15242558 -60.86063867 6.06905085 -37.3125 2.375 C-36.15693604 2.19243652 -35.00137207 2.00987305 -33.81079102 1.82177734 C-22.54058472 0.22141802 -11.3718629 -0.02307483 0 0 Z M-125.3125 43.375 C-126.30491699 44.01042725 -126.30491699 44.01042725 -127.31738281 44.65869141 C-150.27902698 59.54289712 -171.2844923 78.11276929 -187.3125 100.375 C-188.08722656 101.43976563 -188.86195313 102.50453125 -189.66015625 103.6015625 C-195.33087293 111.59698122 -200.42598333 119.88614413 -205.3125 128.375 C-205.6513623 128.95411133 -205.99022461 129.53322266 -206.33935547 130.12988281 C-223.44092004 159.5589295 -233.87151734 196.34933813 -234.3125 230.375 C-234.34899658 231.892146 -234.34899658 231.892146 -234.38623047 233.43994141 C-234.73804079 248.76007891 -234.21581483 263.32857865 -231.3125 278.375 C-231.01823493 280.03102017 -230.72528587 281.68727469 -230.43359375 283.34375 C-223.52119798 321.33610666 -207.92674121 357.48960459 -183.3125 387.375 C-182.86471191 387.92430176 -182.41692383 388.47360352 -181.95556641 389.03955078 C-162.65272062 412.59613457 -139.79241516 431.38663482 -113.3125 446.375 C-112.70728516 446.72014648 -112.10207031 447.06529297 -111.47851562 447.42089844 C-60.81608624 476.09012654 2.59198741 483.33768042 58.6875 468.375 C89.92668081 459.28541174 120.52802873 445.26634668 145.6875 424.375 C146.23535156 423.92721191 146.78320312 423.47942383 147.34765625 423.01806641 C160.68661793 412.09090446 173.23044181 400.12234413 183.6875 386.375 C184.09887207 385.84535645 184.51024414 385.31571289 184.93408203 384.77001953 C207.03937951 356.23676651 222.21325321 323.23565963 229.20263672 287.81298828 C229.52579338 286.18809279 229.86599291 284.56649383 230.22314453 282.94873047 C233.06704023 269.80715909 232.87384358 256.5392537 232.87280273 243.15820312 C232.87499013 240.01418529 232.89320242 236.87051861 232.91210938 233.7265625 C232.94215811 223.06400548 232.64215148 212.88226741 230.6875 202.375 C230.44679525 200.81267236 230.20710016 199.25018859 229.96875 197.6875 C220.62335898 143.84495306 189.24115496 91.56994783 145.6875 58.375 C145.13513672 57.95154297 144.58277344 57.52808594 144.01367188 57.09179688 C120.65110684 39.26854474 95.63612987 26.5033443 67.6875 17.375 C66.88924805 17.10961426 66.09099609 16.84422852 65.26855469 16.57080078 C2.65180815 -3.88252997 -70.40041986 8.18562053 -125.3125 43.375 Z " fill="#3A8FAA" transform="translate(239.3125,-0.375)"/>
<path d="M0 0 C0.99 0.495 0.99 0.495 2 1 C1.566875 1.51949219 1.13375 2.03898437 0.6875 2.57421875 C0.130625 3.27160156 -0.42625 3.96898437 -1 4.6875 C-1.556875 5.37199219 -2.11375 6.05648437 -2.6875 6.76171875 C-4.21931728 8.9393353 -4.21931728 8.9393353 -3.9921875 11.5859375 C-4 14 -4 14 -5.2578125 15.52734375 C-5.87398438 15.99269531 -6.49015625 16.45804688 -7.125 16.9375 C-18.54686785 26.27715124 -28.31311453 37.10980415 -37 49 C-37.39525879 49.53979492 -37.79051758 50.07958984 -38.19775391 50.63574219 C-44.33991534 59.10147789 -49.7871605 67.94425616 -55 77 C-55.3388623 77.57911133 -55.67772461 78.15822266 -56.02685547 78.75488281 C-73.12842004 108.1839295 -83.55901734 144.97433813 -84 179 C-84.03649658 180.517146 -84.03649658 180.517146 -84.07373047 182.06494141 C-84.42554079 197.38507891 -83.90331483 211.95357865 -81 227 C-80.70573493 228.65602017 -80.41278587 230.31227469 -80.12109375 231.96875 C-76.76784752 250.39907879 -71.3233834 268.48592535 -63.8359375 285.671875 C-62.56367905 289.21517424 -62.87316186 292.25827488 -63 296 C-63.99 296 -64.98 296 -66 296 C-82.25910317 262.31505246 -90.45080007 227.04369998 -90.375 189.6875 C-90.37478851 188.72255615 -90.37457703 187.7576123 -90.37435913 186.76342773 C-90.3396725 170.85689661 -89.32634017 155.60127337 -86 140 C-85.81808105 139.11634766 -85.63616211 138.23269531 -85.44873047 137.32226562 C-76.74485417 96.09747172 -56.68420768 57.79252469 -28 27 C-26.78661781 25.60855334 -25.57802197 24.21291361 -24.375 22.8125 C-18.56608271 16.18131588 -12.34666242 10.52275266 -5.453125 5.015625 C-3.51004385 3.41908062 -1.7283014 1.82047747 0 0 Z " fill="#31639B" transform="translate(90,51)"/>
<path d="M0 0 C0.99 0.495 0.99 0.495 2 1 C1.566875 1.51949219 1.13375 2.03898437 0.6875 2.57421875 C0.130625 3.27160156 -0.42625 3.96898437 -1 4.6875 C-1.556875 5.37199219 -2.11375 6.05648437 -2.6875 6.76171875 C-4.21931728 8.9393353 -4.21931728 8.9393353 -3.9921875 11.5859375 C-4 14 -4 14 -5.2578125 15.52734375 C-5.87398437 15.99269531 -6.49015625 16.45804688 -7.125 16.9375 C-18.54686785 26.27715124 -28.31311453 37.10980415 -37 49 C-37.39525879 49.53979492 -37.79051758 50.07958984 -38.19775391 50.63574219 C-46.78668568 62.4738593 -54.15470818 75.08790053 -61 88 C-61.66 88 -62.32 88 -63 88 C-63.33 87.01 -63.66 86.02 -64 85 C-65.485 85.495 -65.485 85.495 -67 86 C-65.48207004 80.79801299 -63.19414836 76.3256054 -60.5625 71.625 C-60.12437988 70.84060547 -59.68625977 70.05621094 -59.23486328 69.24804688 C-52.532746 57.45232046 -44.74029087 46.37413834 -36 36 C-35.55543457 35.46665039 -35.11086914 34.93330078 -34.65283203 34.38378906 C-25.65840691 23.60730777 -16.38386064 13.65972261 -5.34765625 4.91015625 C-3.43495068 3.35389498 -1.69531759 1.78483931 0 0 Z " fill="#2C4898" transform="translate(90,51)"/>
<path d="M0 0 C2.23268748 2.75523136 3.89787978 5.61095651 5.49804688 8.77075195 C8.9358103 15.55604645 12.78270941 21.98325383 17 28.3125 C17.51062988 29.07884766 18.02125977 29.84519531 18.54736328 30.63476562 C21.4204018 34.87219883 24.4386142 38.77841566 27.8125 42.625 C30.92526523 46.32180984 30.92526523 46.32180984 31.26171875 49.375 C31 51.625 31 51.625 30 55 C16.97426653 42.72902865 3.67344156 24.02032468 -2 7 C-1.40206327 4.64811553 -0.74118205 2.31074405 0 0 Z " fill="#3884A8" transform="translate(27,341)"/>
<path d="M0 0 C0.33 0 0.66 0 1 0 C-0.26212741 19.87850678 -14.88205644 40.00287506 -26.29394531 55.79003906 C-28.10802859 58.30320148 -29.85337123 60.7358154 -31.359375 63.44921875 C-33.85608762 67.33101242 -37.0590423 70.49352932 -40.25 73.8125 C-41.54823761 75.17187706 -42.84511653 76.53255303 -44.140625 77.89453125 C-44.78185303 78.56822754 -45.42308105 79.24192383 -46.08374023 79.93603516 C-48.00210796 82.00227044 -49.8423921 84.11999478 -51.67578125 86.26171875 C-54.22065926 89.19714734 -56.79982674 91.68294898 -59.9375 94 C-60.70964844 94.5775 -61.48179687 95.155 -62.27734375 95.75 C-62.84582031 96.1625 -63.41429687 96.575 -64 97 C-64.66 96.67 -65.32 96.34 -66 96 C-65.40574219 95.47792969 -64.81148438 94.95585937 -64.19921875 94.41796875 C-53.9400717 85.30759089 -44.39366321 75.87328528 -36 65 C-35.58282715 64.46455566 -35.1656543 63.92911133 -34.73583984 63.37744141 C-20.02778448 44.38612131 -7.37682782 22.95586281 0 0 Z " fill="#46C0B4" transform="translate(458,321)"/>
<path d="M0 0 C-0.74765625 0.39832031 -1.4953125 0.79664063 -2.265625 1.20703125 C-3.25046875 1.73683594 -4.2353125 2.26664063 -5.25 2.8125 C-6.22453125 3.33457031 -7.1990625 3.85664062 -8.203125 4.39453125 C-10.63355412 5.78965188 -12.80787699 7.26195961 -15 9 C-15.66 8.67 -16.32 8.34 -17 8 C-15.41906946 6.87162591 -13.83515284 5.74743482 -12.25 4.625 C-11.36828125 3.99851562 -10.4865625 3.37203125 -9.578125 2.7265625 C-3.67673716 -1.22557905 -3.67673716 -1.22557905 0 0 Z M-19 9 C-18.34 9.33 -17.68 9.66 -17 10 C-17.6496875 10.5878125 -17.6496875 10.5878125 -18.3125 11.1875 C-20.13858339 13.01043451 -20.13858339 13.01043451 -21.5 15.625 C-23 18 -23 18 -26 19 C-26.68620031 20.32338632 -27.34786461 21.65949948 -28 23 C-29.59716811 25.06722076 -31.29136328 27.02157854 -33 29 C-33.33 28.01 -33.66 27.02 -34 26 C-30.22332721 19.50924371 -24.39639525 14.14409625 -19 9 Z " fill="#30559E" transform="translate(205,44)"/>
<path d="M0 0 C0 3 0 3 -2.265625 5.41015625 C-3.25046875 6.28542969 -4.2353125 7.16070312 -5.25 8.0625 C-6.22453125 8.94035156 -7.1990625 9.81820313 -8.203125 10.72265625 C-10.53595123 12.62215024 -12.32641726 13.75198984 -15 15 C-17.24192221 16.42109391 -19.46794359 17.85749398 -21.6875 19.3125 C-25.81499328 21.98244029 -29.94154706 24.6458663 -34.1875 27.125 C-34.86167969 27.51945312 -35.53585937 27.91390625 -36.23046875 28.3203125 C-38 29 -38 29 -41 28 C-40.175 27.55011719 -39.35 27.10023438 -38.5 26.63671875 C-24.7420592 19.02031949 -11.93970968 10.24487801 0 0 Z " fill="#44C2B7" transform="translate(391,418)"/>
<path d="M0 0 C1.0970678 3.2912034 0.93390664 3.83259375 0 7 C-0.21398437 7.98355469 -0.42796875 8.96710938 -0.6484375 9.98046875 C-0.88820313 11.03878906 -1.12796875 12.09710938 -1.375 13.1875 C-1.60960937 14.25355469 -1.84421875 15.31960938 -2.0859375 16.41796875 C-2.38757813 17.27003906 -2.68921875 18.12210937 -3 19 C-3.99 19.33 -4.98 19.66 -6 20 C-2.28571429 2.28571429 -2.28571429 2.28571429 0 0 Z " fill="#4DBDB5" transform="translate(466,298)"/>
<path d="M0 0 C0.99 0.33 1.98 0.66 3 1 C2.30583984 1.59941406 2.30583984 1.59941406 1.59765625 2.2109375 C-0.26553148 4.29734332 -0.80004225 5.94986251 -1.5625 8.625 C-2.25390625 11.0390625 -2.25390625 11.0390625 -3 13 C-3.99 13.495 -3.99 13.495 -5 14 C-4.53411505 8.29290936 -3.06242216 4.84060277 0 0 Z " fill="#31569F" transform="translate(168,75)"/>
<path d="M0 0 C2 1.25 2 1.25 4 3 C4 4.32 4 5.64 4 7 C4.99 7 5.98 7 7 7 C6.67 7.99 6.34 8.98 6 10 C2.26115668 7.34345343 0.35021826 5.41889613 -1 1 C-0.67 0.67 -0.34 0.34 0 0 Z " fill="#3878A3" transform="translate(71,273)"/>
<path d="M0 0 C2.31 0 4.62 0 7 0 C6.34 1.98 5.68 3.96 5 6 C4.34 6 3.68 6 3 6 C2.67 5.01 2.34 4.02 2 3 C1.01 3.33 0.02 3.66 -1 4 C-0.67 2.68 -0.34 1.36 0 0 Z " fill="#29498E" transform="translate(24,133)"/>
<path d="M0 0 C3.3 0.33 6.6 0.66 10 1 C10 1.33 10 1.66 10 2 C8.741875 2.103125 7.48375 2.20625 6.1875 2.3125 C3.39500343 2.64858808 2.25566879 2.80025876 0 4.5625 C-0.33 5.036875 -0.66 5.51125 -1 6 C-0.67 4.02 -0.34 2.04 0 0 Z " fill="#3B8FAB" transform="translate(311,169)"/>
<path d="M0 0 C0.33 0 0.66 0 1 0 C0.91253716 1.43861294 0.80434652 2.87597508 0.6875 4.3125 C0.62949219 5.11300781 0.57148438 5.91351563 0.51171875 6.73828125 C-0.08206694 9.36272334 -0.95780294 10.30820672 -3 12 C-3.66 11.67 -4.32 11.34 -5 11 C-4.72285156 10.45730469 -4.44570313 9.91460937 -4.16015625 9.35546875 C-3.79792969 8.64003906 -3.43570312 7.92460937 -3.0625 7.1875 C-2.52302734 6.12595703 -2.52302734 6.12595703 -1.97265625 5.04296875 C-0.89269484 2.88189715 -0.89269484 2.88189715 0 0 Z " fill="#47AFB7" transform="translate(374,253)"/>
<path d="M0 0 C1.8871875 0.0309375 1.8871875 0.0309375 3.8125 0.0625 C0.27838679 2.18296792 -3.13143835 2.59449289 -7.1875 3.0625 C-7.1875 2.4025 -7.1875 1.7425 -7.1875 1.0625 C-4.43671116 0.14557039 -2.82801087 -0.04636083 0 0 Z " fill="#30559D" transform="translate(219.1875,37.9375)"/>
<path d="M0 0 C0.33 0 0.66 0 1 0 C1.36923077 6.4 1.36923077 6.4 -0.5 9.4375 C-0.995 9.953125 -1.49 10.46875 -2 11 C-3.13643966 7.59068103 -2.86747764 6.99664544 -1.5625 3.8125 C-1.13130859 2.73935547 -1.13130859 2.73935547 -0.69140625 1.64453125 C-0.46324219 1.10183594 -0.23507812 0.55914062 0 0 Z " fill="#4BB8B7" transform="translate(272,374)"/>
<path d="M0 0 C0.99 0.33 1.98 0.66 3 1 C0.525 4.465 0.525 4.465 -2 8 C-2.33 6.68 -2.66 5.36 -3 4 C-1.5625 1.75 -1.5625 1.75 0 0 Z " fill="#3A579F" transform="translate(56,91)"/>
<path d="M0 0 C0.66 0.33 1.32 0.66 2 1 C0.7260411 3.03833424 -0.61061923 5.03852126 -2 7 C-2.66 7 -3.32 7 -4 7 C-3.43628586 3.73045798 -2.50037734 2.17424117 0 0 Z " fill="#244899" transform="translate(184,55)"/>
</svg>
